<svg xmlns="http://www.w3.org/2000/svg" viewBox="0 0 1248 832" width="1248" height="832" shape-rendering="geometricPrecision">
<rect width="100%" height="100%" fill="white"/>
<path d="M 374 500 L 366 500 L 366 503 L 365 504 L 362 504 L 359 508 L 359 513 L 357 514 L 355 517 L 353 517 L 353 519 L 351 521 L 347 521 L 348 524 L 347 525 L 347 531 L 345 533 L 345 571 L 346 572 L 346 579 L 351 585 L 356 586 L 359 588 L 363 588 L 371 585 L 374 582 L 376 576 L 376 548 L 378 544 L 378 540 L 377 539 L 376 507 L 375 506 L 375 501 Z" fill="#3b292b" fill-rule="evenodd"/>
<path d="M 266 494 L 266 499 L 267 500 L 267 501 L 277 511 L 278 514 L 284 520 L 285 520 L 287 522 L 290 523 L 295 528 L 296 528 L 300 531 L 304 531 L 306 529 L 306 523 L 307 522 L 307 513 L 306 512 L 306 511 L 307 510 L 307 507 L 306 506 L 306 505 L 305 505 L 304 504 L 304 503 L 306 501 L 306 499 L 305 498 L 305 497 L 304 497 L 302 495 L 297 495 L 296 496 L 292 496 L 291 497 L 284 497 L 283 496 L 280 496 L 279 495 L 275 495 L 272 493 L 267 493 Z" fill="#3b292b" fill-rule="evenodd"/>
<path d="M 203 478 L 208 514 L 214 531 L 245 561 L 249 563 L 259 562 L 267 565 L 269 562 L 270 554 L 265 548 L 257 550 L 257 553 L 260 554 L 257 558 L 249 559 L 228 541 L 226 538 L 226 534 L 228 533 L 230 522 L 226 522 L 225 520 L 229 516 L 231 516 L 232 513 L 230 499 L 226 493 L 214 488 L 214 491 L 216 493 L 212 495 L 213 507 L 211 508 L 210 503 L 208 501 L 205 478 Z" fill="#3b292b" fill-rule="evenodd"/>
<path d="M 714 476 L 712 474 L 697 474 L 695 476 L 693 476 L 692 475 L 692 472 L 693 471 L 693 469 L 691 469 L 690 470 L 690 482 L 689 483 L 689 485 L 691 485 L 692 484 L 694 486 L 694 488 L 692 490 L 683 490 L 682 489 L 680 489 L 680 491 L 684 495 L 692 495 L 693 494 L 694 494 L 697 491 L 697 490 L 698 489 L 698 483 L 700 480 L 701 480 L 702 479 L 704 479 L 705 478 L 708 478 L 711 480 L 714 480 Z" fill="#3b292b" fill-rule="evenodd"/>
<path d="M 339 464 L 336 464 L 335 466 L 335 468 L 334 469 L 334 477 L 333 478 L 333 480 L 335 482 L 335 485 L 333 487 L 333 494 L 334 496 L 332 498 L 332 526 L 333 527 L 333 531 L 334 533 L 337 533 L 337 529 L 338 528 L 338 487 L 339 486 L 339 484 L 338 483 L 338 480 L 339 479 Z" fill="#3b292b" fill-rule="evenodd"/>
<path d="M 524 454 L 518 463 L 515 459 L 507 464 L 509 467 L 501 478 L 492 512 L 462 547 L 451 551 L 414 583 L 364 612 L 307 581 L 294 578 L 287 568 L 279 571 L 278 566 L 272 566 L 271 572 L 283 577 L 278 582 L 268 579 L 279 588 L 290 588 L 296 594 L 297 602 L 363 647 L 464 573 L 467 561 L 481 560 L 510 531 L 519 506 Z" fill="#3b292b" fill-rule="evenodd"/>
<path d="M 469 448 L 449 446 L 441 442 L 436 437 L 428 437 L 411 454 L 411 456 L 415 456 L 426 448 L 442 448 L 454 459 L 460 472 L 458 482 L 451 492 L 438 497 L 430 497 L 420 493 L 417 493 L 413 500 L 413 531 L 417 537 L 422 536 L 433 529 L 439 522 L 458 507 L 466 495 L 472 466 L 472 452 Z" fill="#3b292b" fill-rule="evenodd"/>
<path d="M 594 430 L 592 432 L 592 443 L 590 445 L 590 448 L 591 449 L 591 450 L 594 453 L 595 453 L 596 454 L 598 454 L 599 453 L 600 453 L 605 448 L 605 447 L 606 446 L 606 444 L 607 443 L 607 438 L 605 438 L 604 437 L 604 432 L 602 432 L 600 430 Z" fill="#3b292b" fill-rule="evenodd"/>
<path d="M 626 418 L 626 445 L 611 460 L 611 464 L 622 471 L 621 476 L 614 473 L 619 480 L 624 480 L 630 473 L 637 475 L 633 495 L 639 506 L 626 510 L 624 504 L 573 505 L 566 500 L 570 499 L 569 477 L 583 461 L 583 458 L 576 458 L 567 444 L 567 422 L 565 446 L 572 459 L 577 460 L 564 472 L 562 469 L 559 471 L 559 496 L 565 505 L 572 508 L 619 508 L 625 513 L 654 513 L 639 490 L 645 465 L 640 470 L 623 471 L 621 468 L 624 465 L 636 463 L 615 465 L 628 447 Z" fill="#3b292b" fill-rule="evenodd"/>
<path d="M 831 435 L 833 435 L 833 428 L 834 427 L 834 426 L 839 421 L 840 421 L 841 420 L 844 420 L 845 419 L 874 419 L 875 420 L 877 420 L 880 422 L 882 422 L 882 420 L 880 418 L 879 418 L 876 416 L 873 416 L 872 415 L 843 415 L 842 416 L 839 416 L 838 417 L 837 417 L 833 421 L 833 422 L 832 423 L 832 426 L 831 427 Z" fill="#3b292b" fill-rule="evenodd"/>
<path d="M 660 432 L 662 432 L 662 428 L 663 427 L 663 426 L 668 421 L 669 421 L 670 420 L 676 420 L 677 419 L 691 419 L 692 418 L 697 418 L 698 419 L 705 419 L 708 421 L 710 421 L 710 419 L 708 417 L 707 417 L 706 416 L 702 416 L 701 415 L 673 415 L 672 416 L 668 416 L 667 417 L 666 417 L 662 421 L 662 422 L 661 423 L 661 426 L 660 427 Z" fill="#3b292b" fill-rule="evenodd"/>
<path d="M 571 444 L 573 444 L 573 428 L 574 426 L 577 423 L 581 421 L 585 421 L 586 420 L 615 420 L 619 423 L 621 423 L 621 420 L 618 417 L 616 416 L 614 416 L 613 415 L 581 415 L 580 416 L 578 416 L 576 417 L 572 421 L 571 423 Z" fill="#3b292b" fill-rule="evenodd"/>
<path d="M 752 412 L 747 506 L 724 503 L 725 410 L 722 420 L 716 419 L 715 447 L 695 447 L 692 433 L 682 433 L 683 485 L 687 434 L 692 450 L 722 452 L 717 495 L 705 505 L 673 506 L 660 500 L 659 494 L 664 497 L 662 454 L 660 476 L 656 476 L 654 428 L 657 501 L 668 508 L 705 508 L 721 498 L 724 508 L 750 508 Z" fill="#3b292b" fill-rule="evenodd"/>
<path d="M 531 365 L 529 365 L 529 378 L 528 379 L 528 390 L 527 391 L 526 411 L 523 416 L 523 418 L 522 419 L 521 418 L 520 413 L 516 413 L 513 416 L 510 417 L 507 420 L 505 424 L 508 433 L 513 437 L 513 439 L 508 444 L 508 447 L 511 447 L 516 451 L 521 450 L 520 442 L 527 434 L 528 413 L 529 412 L 529 396 L 530 395 L 530 381 L 531 380 Z" fill="#3b292b" fill-rule="evenodd"/>
<path d="M 987 308 L 987 314 L 989 314 L 989 313 L 991 311 L 992 311 L 993 310 L 996 310 L 997 309 L 1003 309 L 1004 310 L 1031 310 L 1032 311 L 1035 311 L 1036 312 L 1038 312 L 1041 314 L 1043 314 L 1043 311 L 1040 308 L 1039 308 L 1036 306 L 989 306 Z" fill="#3b292b" fill-rule="evenodd"/>
<path d="M 463 309 L 439 306 L 440 316 L 448 312 L 458 320 L 456 328 L 465 326 L 467 330 L 465 335 L 457 336 L 457 332 L 441 326 L 438 360 L 390 358 L 379 367 L 351 368 L 340 365 L 334 357 L 323 360 L 318 356 L 290 374 L 286 391 L 291 394 L 330 375 L 340 387 L 341 409 L 347 384 L 374 394 L 380 418 L 373 443 L 382 454 L 385 562 L 395 471 L 387 451 L 395 434 L 396 411 L 400 405 L 405 406 L 405 398 L 470 399 L 476 392 L 479 323 Z" fill="#3b292b" fill-rule="evenodd"/>
<path d="M 565 301 L 567 406 L 597 404 L 600 366 L 608 369 L 609 406 L 667 405 L 675 388 L 686 388 L 693 406 L 744 408 L 751 374 L 758 384 L 783 376 L 786 406 L 814 404 L 813 303 L 808 403 L 786 400 L 786 358 L 775 381 L 760 382 L 748 357 L 748 400 L 723 400 L 723 307 L 720 378 L 698 308 L 720 401 L 696 403 L 690 387 L 672 386 L 664 403 L 642 403 L 654 340 L 640 375 L 640 304 L 637 400 L 613 403 L 610 365 L 596 363 L 594 400 L 570 403 Z" fill="#3b292b" fill-rule="evenodd"/>
<path d="M 1047 306 L 1049 350 L 1033 373 L 1051 403 L 1029 403 L 1012 369 L 1009 400 L 982 400 L 982 300 L 973 323 L 945 325 L 946 340 L 950 326 L 980 328 L 980 377 L 960 379 L 976 400 L 921 403 L 915 301 L 912 409 L 911 302 L 905 403 L 883 400 L 885 355 L 867 382 L 845 355 L 845 400 L 821 400 L 818 302 L 818 404 L 846 406 L 849 376 L 880 376 L 894 408 L 885 447 L 853 432 L 851 479 L 863 484 L 858 434 L 893 466 L 850 491 L 880 479 L 888 492 L 875 505 L 831 499 L 833 442 L 827 469 L 817 416 L 808 480 L 825 503 L 801 505 L 782 474 L 784 503 L 762 506 L 756 411 L 756 506 L 784 508 L 790 492 L 799 508 L 876 508 L 892 494 L 939 509 L 962 491 L 964 508 L 991 509 L 1005 434 L 1008 506 L 1038 509 L 1040 437 L 1057 432 L 1041 370 Z" fill="#3b292b" fill-rule="evenodd"/>
<path d="M 517 274 L 516 275 L 514 275 L 513 276 L 513 277 L 511 279 L 510 279 L 510 280 L 509 281 L 509 288 L 508 289 L 508 290 L 507 291 L 504 291 L 504 293 L 508 293 L 509 292 L 510 292 L 513 295 L 513 296 L 515 298 L 517 298 L 518 299 L 522 299 L 525 296 L 525 295 L 526 294 L 527 294 L 527 293 L 528 292 L 528 290 L 529 289 L 529 282 L 527 280 L 527 279 L 526 278 L 526 277 L 524 275 L 521 275 L 520 274 Z" fill="#3b292b" fill-rule="evenodd"/>
<path d="M 536 268 L 534 268 L 533 269 L 533 284 L 532 285 L 532 323 L 531 324 L 531 332 L 528 335 L 523 337 L 518 341 L 518 344 L 524 348 L 526 348 L 526 343 L 533 336 L 533 328 L 534 327 L 534 303 L 535 302 L 535 280 L 536 279 Z" fill="#3b292b" fill-rule="evenodd"/>
<path d="M 866 536 L 866 537 L 865 538 L 865 568 L 867 570 L 883 570 L 884 569 L 887 569 L 888 568 L 889 568 L 893 564 L 893 563 L 894 562 L 894 559 L 893 558 L 893 557 L 892 556 L 891 553 L 889 551 L 889 548 L 891 546 L 891 545 L 892 544 L 892 541 L 891 540 L 891 539 L 888 536 L 887 536 L 886 535 L 868 535 L 867 536 Z" fill="#7c0e10" fill-rule="evenodd"/>
<path d="M 778 535 L 776 537 L 776 568 L 778 570 L 794 570 L 794 567 L 786 567 L 785 566 L 784 566 L 781 563 L 781 536 L 780 535 Z" fill="#7c0e10" fill-rule="evenodd"/>
<path d="M 590 537 L 592 542 L 592 546 L 598 560 L 598 564 L 602 570 L 605 570 L 607 568 L 609 559 L 615 543 L 618 544 L 622 559 L 622 563 L 625 569 L 630 570 L 633 567 L 635 557 L 641 540 L 641 536 L 639 536 L 636 541 L 634 551 L 630 559 L 628 559 L 626 557 L 621 538 L 619 535 L 615 535 L 612 538 L 608 555 L 605 559 L 602 558 L 599 552 L 595 536 Z" fill="#7c0e10" fill-rule="evenodd"/>
<path d="M 829 534 L 825 538 L 825 539 L 824 540 L 824 542 L 823 543 L 823 544 L 822 545 L 822 547 L 821 548 L 821 549 L 817 556 L 817 558 L 815 561 L 815 563 L 813 566 L 813 568 L 816 568 L 816 566 L 817 565 L 817 564 L 820 561 L 837 561 L 840 564 L 840 565 L 842 567 L 842 568 L 843 569 L 845 569 L 845 564 L 843 561 L 843 559 L 842 558 L 842 557 L 841 556 L 841 554 L 839 551 L 839 549 L 838 548 L 838 546 L 837 545 L 837 542 L 836 541 L 835 538 L 831 534 Z" fill="#7c0e10" fill-rule="evenodd"/>
<path d="M 661 535 L 660 537 L 660 567 L 661 569 L 663 570 L 681 570 L 682 569 L 682 567 L 669 567 L 666 565 L 665 563 L 665 556 L 668 553 L 680 553 L 680 551 L 679 550 L 668 550 L 665 547 L 665 539 L 668 536 L 682 536 L 682 534 L 663 534 Z" fill="#7c0e10" fill-rule="evenodd"/>
<path d="M 707 534 L 704 537 L 704 548 L 705 549 L 705 551 L 704 552 L 704 567 L 707 570 L 723 570 L 724 569 L 727 569 L 728 568 L 729 568 L 733 564 L 733 563 L 734 562 L 734 558 L 733 557 L 732 554 L 729 551 L 729 550 L 728 549 L 731 546 L 731 545 L 732 544 L 732 539 L 728 535 L 727 535 L 726 534 L 722 534 L 721 533 L 714 533 L 713 534 Z" fill="#7c0e10" fill-rule="evenodd"/>
<path d="M 328 489 L 326 492 L 326 561 L 327 562 L 327 567 L 329 572 L 336 579 L 340 579 L 340 529 L 338 529 L 338 533 L 336 535 L 335 535 L 332 531 L 332 527 L 331 526 L 331 491 L 330 489 Z" fill="#7c0e10" fill-rule="evenodd"/>
<path d="M 1006 422 L 1005 423 L 1005 426 L 1013 426 L 1014 427 L 1015 427 L 1019 431 L 1019 432 L 1020 433 L 1020 435 L 1021 436 L 1021 443 L 1022 444 L 1022 459 L 1023 460 L 1023 463 L 1024 464 L 1024 465 L 1025 466 L 1027 466 L 1027 465 L 1028 464 L 1028 460 L 1029 459 L 1029 454 L 1030 453 L 1030 449 L 1031 448 L 1031 433 L 1032 432 L 1032 430 L 1036 426 L 1037 426 L 1037 424 L 1035 424 L 1034 423 L 1022 423 L 1021 422 L 1018 422 L 1017 423 L 1010 423 L 1009 422 Z" fill="#7c0e10" fill-rule="evenodd"/>
<path d="M 977 422 L 974 425 L 974 447 L 975 448 L 976 484 L 977 485 L 977 492 L 978 493 L 978 495 L 981 498 L 984 498 L 984 481 L 986 478 L 986 452 L 987 451 L 986 445 L 987 444 L 987 425 L 986 423 L 984 422 Z" fill="#7c0e10" fill-rule="evenodd"/>
<path d="M 903 422 L 902 468 L 905 496 L 908 499 L 915 501 L 944 500 L 948 498 L 951 492 L 952 467 L 951 422 L 943 421 L 938 426 L 940 491 L 935 496 L 923 496 L 916 490 L 916 424 L 913 421 Z" fill="#7c0e10" fill-rule="evenodd"/>
<path d="M 577 424 L 574 428 L 574 445 L 576 449 L 583 456 L 584 461 L 582 465 L 575 470 L 570 477 L 569 490 L 571 497 L 574 500 L 621 499 L 628 505 L 635 505 L 636 501 L 631 493 L 631 486 L 634 476 L 630 474 L 624 481 L 621 482 L 613 475 L 605 464 L 605 459 L 621 445 L 622 435 L 621 426 L 615 421 L 586 421 Z" fill="#7c0e10" fill-rule="evenodd"/>
<path d="M 841 421 L 835 426 L 833 436 L 835 494 L 839 499 L 842 500 L 875 500 L 879 498 L 883 493 L 883 484 L 880 480 L 874 480 L 871 483 L 870 492 L 866 496 L 854 496 L 849 491 L 849 428 L 852 426 L 861 425 L 867 429 L 869 440 L 871 442 L 882 442 L 885 436 L 883 426 L 879 422 L 874 420 Z" fill="#7c0e10" fill-rule="evenodd"/>
<path d="M 766 421 L 764 425 L 766 498 L 768 500 L 777 500 L 779 498 L 779 474 L 783 468 L 786 468 L 791 473 L 802 497 L 805 500 L 813 500 L 815 496 L 806 478 L 804 469 L 806 466 L 813 462 L 817 455 L 816 426 L 808 420 L 768 420 Z" fill="#7c0e10" fill-rule="evenodd"/>
<path d="M 733 420 L 730 423 L 730 473 L 731 474 L 731 498 L 733 500 L 742 500 L 744 498 L 744 481 L 745 480 L 745 437 L 746 436 L 746 427 L 745 426 L 745 423 L 744 421 L 742 420 Z" fill="#7c0e10" fill-rule="evenodd"/>
<path d="M 705 420 L 692 419 L 670 421 L 663 428 L 663 482 L 664 494 L 669 500 L 704 500 L 712 494 L 712 482 L 708 479 L 700 481 L 698 491 L 692 496 L 684 496 L 677 488 L 678 429 L 683 425 L 692 425 L 696 429 L 697 440 L 699 442 L 712 441 L 713 427 L 709 422 Z" fill="#7c0e10" fill-rule="evenodd"/>
<path d="M 633 342 L 631 342 L 631 361 L 629 365 L 629 371 L 628 372 L 628 374 L 627 375 L 625 375 L 624 374 L 624 372 L 623 372 L 620 368 L 620 365 L 619 363 L 617 361 L 615 361 L 615 368 L 616 369 L 616 395 L 618 397 L 631 397 L 633 395 Z" fill="#7c0e10" fill-rule="evenodd"/>
<path d="M 888 340 L 888 356 L 889 357 L 889 394 L 890 396 L 892 397 L 902 397 L 904 395 L 904 343 L 902 343 L 902 346 L 900 348 L 900 356 L 898 358 L 896 358 L 894 356 L 894 354 L 892 350 L 892 344 L 890 340 Z" fill="#7c0e10" fill-rule="evenodd"/>
<path d="M 826 335 L 826 395 L 828 397 L 839 397 L 841 395 L 841 376 L 839 376 L 839 379 L 837 382 L 837 389 L 833 392 L 831 390 L 831 383 L 830 382 L 830 377 L 829 376 L 829 368 L 828 367 L 828 335 Z" fill="#7c0e10" fill-rule="evenodd"/>
<path d="M 669 314 L 667 314 L 666 316 L 665 324 L 664 325 L 664 328 L 662 333 L 662 337 L 660 341 L 660 344 L 659 345 L 659 348 L 657 353 L 657 357 L 656 358 L 656 361 L 654 366 L 654 370 L 650 381 L 650 386 L 648 390 L 648 396 L 649 397 L 662 397 L 664 395 L 664 392 L 666 387 L 666 382 L 665 381 L 663 381 L 662 383 L 659 383 L 658 382 L 658 379 L 659 378 L 659 369 L 658 368 L 658 365 L 660 361 L 661 349 L 663 345 L 663 340 L 665 335 L 665 330 L 666 329 L 666 325 L 667 324 Z" fill="#7c0e10" fill-rule="evenodd"/>
<path d="M 991 312 L 989 315 L 991 395 L 994 397 L 1002 397 L 1004 395 L 1004 364 L 1006 362 L 1011 362 L 1020 371 L 1031 395 L 1037 398 L 1042 397 L 1042 392 L 1032 373 L 1031 362 L 1039 357 L 1044 350 L 1043 317 L 1040 314 L 1031 311 L 997 310 Z" fill="#7c0e10" fill-rule="evenodd"/>
<path d="M 901 310 L 886 310 L 883 313 L 882 315 L 882 318 L 880 321 L 878 329 L 876 332 L 876 334 L 875 335 L 875 337 L 874 338 L 874 340 L 873 341 L 873 343 L 870 350 L 870 354 L 869 356 L 866 359 L 863 357 L 861 351 L 859 351 L 860 359 L 864 364 L 870 364 L 872 363 L 874 360 L 874 358 L 875 357 L 875 349 L 877 346 L 877 341 L 880 335 L 880 331 L 882 329 L 882 326 L 884 322 L 884 318 L 885 316 L 887 314 L 891 312 L 895 312 L 896 313 L 902 314 L 902 311 Z" fill="#7c0e10" fill-rule="evenodd"/>
<path d="M 927 310 L 924 313 L 925 394 L 928 397 L 969 397 L 971 393 L 968 390 L 945 390 L 941 386 L 939 360 L 942 357 L 965 357 L 967 352 L 964 349 L 947 349 L 939 343 L 939 320 L 932 320 L 930 318 L 932 315 L 933 317 L 942 316 L 946 318 L 967 318 L 969 316 L 969 311 L 943 309 Z" fill="#7c0e10" fill-rule="evenodd"/>
<path d="M 631 310 L 622 309 L 617 311 L 615 318 L 615 345 L 611 349 L 594 349 L 590 345 L 590 313 L 587 310 L 578 310 L 574 313 L 573 360 L 574 395 L 576 397 L 587 397 L 590 393 L 589 361 L 592 358 L 612 357 L 614 354 L 617 353 L 619 349 L 618 316 L 622 311 L 631 312 Z" fill="#7c0e10" fill-rule="evenodd"/>
<path d="M 360 248 L 303 282 L 230 303 L 243 499 L 308 558 L 311 499 L 300 532 L 265 493 L 309 495 L 314 484 L 271 485 L 240 410 L 242 311 L 362 261 L 479 320 L 479 384 L 467 400 L 477 427 L 466 439 L 427 429 L 395 460 L 390 443 L 389 559 L 379 469 L 376 580 L 345 582 L 363 595 L 395 572 L 396 478 L 426 437 L 469 447 L 473 466 L 459 507 L 419 538 L 414 495 L 451 491 L 459 472 L 450 458 L 444 489 L 408 483 L 408 560 L 480 501 L 498 302 Z" fill="#7c0e10" fill-rule="evenodd"/>
<path d="M 505 295 L 428 273 L 365 238 L 279 279 L 222 293 L 219 331 L 234 501 L 243 518 L 228 425 L 224 296 L 295 278 L 362 241 L 427 277 L 498 295 L 504 311 Z" fill="#7c0e10" fill-rule="evenodd"/>
<path d="M 562 522 L 560 527 L 560 573 L 566 581 L 564 586 L 695 586 L 695 584 L 676 583 L 671 578 L 654 574 L 641 555 L 637 557 L 632 570 L 627 572 L 623 568 L 616 549 L 612 553 L 608 568 L 601 571 L 597 566 L 587 534 L 589 531 L 595 532 L 602 556 L 605 556 L 610 538 L 606 532 L 607 527 L 598 527 L 597 529 L 594 524 L 599 523 L 599 521 Z" fill="#726062" fill-rule="evenodd"/>
<path d="M 924 520 L 922 518 L 876 519 L 875 521 L 864 521 L 863 525 L 854 525 L 848 531 L 844 531 L 844 534 L 840 539 L 840 547 L 849 569 L 847 571 L 843 571 L 838 563 L 825 564 L 822 566 L 822 570 L 819 574 L 813 575 L 812 581 L 799 582 L 799 585 L 836 587 L 845 586 L 846 583 L 874 583 L 875 586 L 919 586 L 918 579 L 911 578 L 918 576 L 920 573 L 921 533 L 925 532 Z" fill="#726062" fill-rule="evenodd"/>
<path d="M 258 433 L 258 435 L 261 435 L 262 437 L 264 438 L 263 440 L 263 444 L 265 444 L 266 446 L 268 447 L 266 448 L 266 449 L 264 451 L 264 454 L 265 455 L 265 458 L 266 459 L 268 459 L 278 452 L 290 451 L 291 452 L 295 452 L 303 457 L 308 458 L 309 460 L 312 460 L 312 457 L 310 453 L 298 440 L 297 437 L 295 435 L 292 428 L 292 424 L 290 422 L 288 421 L 282 422 L 270 429 L 267 429 L 261 433 Z" fill="#726062" fill-rule="evenodd"/>
<path d="M 207 410 L 204 417 L 208 419 L 203 426 L 199 426 L 203 447 L 203 468 L 209 501 L 216 486 L 226 492 L 231 499 L 233 521 L 230 525 L 232 530 L 227 534 L 227 538 L 249 558 L 257 557 L 255 551 L 259 547 L 265 547 L 271 554 L 267 572 L 274 579 L 278 580 L 278 577 L 273 576 L 270 567 L 278 565 L 280 569 L 287 567 L 295 577 L 324 589 L 266 542 L 236 510 L 231 491 L 223 416 L 210 415 Z" fill="#726062" fill-rule="evenodd"/>
<path d="M 462 399 L 461 398 L 454 398 L 453 397 L 449 397 L 448 398 L 441 398 L 437 401 L 431 400 L 429 398 L 425 398 L 421 400 L 420 399 L 415 399 L 414 400 L 412 400 L 410 402 L 409 401 L 406 401 L 406 406 L 405 407 L 400 406 L 400 408 L 397 411 L 397 425 L 396 426 L 396 435 L 398 435 L 404 428 L 407 427 L 416 418 L 425 414 L 431 414 L 434 412 L 436 412 L 438 410 L 441 409 L 444 406 L 450 403 L 452 403 L 455 401 L 462 401 Z" fill="#726062" fill-rule="evenodd"/>
<path d="M 348 386 L 345 387 L 345 400 L 350 398 L 352 401 L 359 399 L 365 401 L 370 406 L 369 409 L 371 410 L 371 414 L 368 416 L 367 422 L 361 434 L 358 435 L 360 438 L 360 443 L 357 447 L 353 448 L 347 453 L 344 460 L 343 468 L 345 475 L 343 488 L 343 520 L 346 520 L 347 517 L 355 516 L 358 513 L 358 510 L 355 509 L 368 497 L 369 499 L 377 500 L 378 494 L 377 474 L 379 451 L 371 443 L 372 428 L 376 420 L 374 396 L 371 392 L 357 391 Z" fill="#726062" fill-rule="evenodd"/>
<path d="M 285 365 L 282 370 L 275 372 L 272 375 L 273 386 L 283 394 L 300 401 L 309 409 L 314 426 L 330 444 L 333 451 L 333 458 L 335 462 L 337 462 L 337 456 L 340 453 L 338 447 L 339 439 L 337 429 L 338 422 L 342 420 L 339 406 L 340 391 L 338 385 L 330 376 L 322 377 L 304 391 L 298 394 L 291 395 L 287 393 L 279 385 L 280 381 L 283 378 L 283 375 L 289 366 L 289 364 Z" fill="#726062" fill-rule="evenodd"/>
<path d="M 193 358 L 193 375 L 194 376 L 194 389 L 195 390 L 195 400 L 196 401 L 196 403 L 198 405 L 201 405 L 202 404 L 210 404 L 211 405 L 213 405 L 213 403 L 212 403 L 211 402 L 212 401 L 213 401 L 213 397 L 212 396 L 203 396 L 201 399 L 198 395 L 198 393 L 197 392 L 197 386 L 196 385 L 196 371 L 195 370 L 195 358 Z" fill="#726062" fill-rule="evenodd"/>
<path d="M 439 356 L 438 354 L 424 354 L 423 355 L 418 355 L 412 353 L 404 353 L 403 354 L 385 354 L 380 357 L 377 357 L 376 358 L 351 357 L 350 356 L 336 356 L 336 359 L 340 364 L 344 364 L 347 366 L 352 366 L 353 367 L 359 367 L 360 366 L 376 366 L 377 365 L 381 365 L 390 357 L 400 357 L 401 358 L 409 358 L 413 360 L 426 361 L 432 359 L 438 359 Z" fill="#726062" fill-rule="evenodd"/>
<path d="M 247 344 L 247 347 L 248 348 L 248 350 L 246 353 L 246 358 L 247 359 L 247 363 L 248 364 L 248 369 L 249 370 L 249 372 L 250 373 L 250 376 L 251 377 L 252 380 L 255 383 L 257 383 L 258 382 L 259 382 L 260 383 L 264 383 L 265 384 L 269 384 L 269 380 L 268 380 L 267 379 L 267 376 L 264 373 L 264 372 L 263 372 L 260 370 L 260 368 L 261 367 L 262 367 L 262 365 L 260 365 L 260 366 L 259 367 L 258 367 L 256 365 L 256 363 L 255 363 L 254 362 L 254 360 L 253 359 L 253 356 L 252 355 L 252 352 L 253 351 L 256 351 L 256 349 L 251 345 L 250 345 L 249 344 Z" fill="#726062" fill-rule="evenodd"/>
<path d="M 531 290 L 521 301 L 515 299 L 511 294 L 508 295 L 509 313 L 504 401 L 494 493 L 496 493 L 500 478 L 506 470 L 505 464 L 510 461 L 510 456 L 513 455 L 519 458 L 521 452 L 516 452 L 507 447 L 512 437 L 507 433 L 504 424 L 516 412 L 523 414 L 525 411 L 530 357 L 529 350 L 522 348 L 516 342 L 530 332 Z" fill="#726062" fill-rule="evenodd"/>
<path d="M 363 271 L 364 288 L 367 296 L 371 298 L 372 301 L 367 302 L 366 307 L 363 311 L 363 315 L 359 319 L 359 321 L 376 321 L 382 327 L 384 327 L 385 324 L 391 326 L 406 326 L 410 323 L 428 321 L 429 319 L 433 319 L 436 325 L 438 326 L 441 325 L 441 317 L 439 316 L 439 314 L 437 312 L 438 308 L 433 309 L 429 305 L 427 305 L 426 302 L 423 299 L 417 298 L 414 294 L 404 290 L 402 288 L 397 287 L 391 283 L 386 282 L 374 276 L 366 270 Z" fill="#726062" fill-rule="evenodd"/>
<path d="M 395 234 L 396 244 L 402 245 L 404 252 L 408 254 L 408 260 L 410 262 L 446 278 L 480 287 L 507 290 L 509 279 L 514 274 L 520 273 L 524 274 L 530 284 L 532 284 L 531 269 L 478 263 L 460 272 L 458 269 L 457 251 L 454 251 L 453 254 L 444 252 L 441 249 L 441 246 L 438 244 L 434 244 L 431 248 L 427 247 L 423 243 L 414 241 L 413 239 L 408 239 L 404 235 Z" fill="#726062" fill-rule="evenodd"/>
<path d="M 579 517 L 579 520 L 602 520 L 601 526 L 618 530 L 627 542 L 633 542 L 635 534 L 642 530 L 639 553 L 656 574 L 659 574 L 657 534 L 684 531 L 687 534 L 684 538 L 668 538 L 666 545 L 682 547 L 685 552 L 667 555 L 666 561 L 688 568 L 661 574 L 682 583 L 725 583 L 726 587 L 778 587 L 779 583 L 811 580 L 811 575 L 821 570 L 821 565 L 814 571 L 808 568 L 823 534 L 832 530 L 840 538 L 843 529 L 851 527 L 853 521 L 864 520 L 864 517 L 775 520 L 769 527 L 746 534 L 713 520 Z" fill="#b5a6a5" fill-rule="evenodd"/>
<path d="M 421 472 L 408 472 L 400 480 L 400 551 L 399 552 L 399 556 L 400 557 L 400 567 L 404 571 L 404 573 L 409 572 L 410 569 L 407 570 L 403 565 L 403 482 L 409 476 L 419 476 L 421 475 Z" fill="#b5a6a5" fill-rule="evenodd"/>
<path d="M 302 472 L 301 473 L 302 476 L 313 476 L 319 481 L 319 566 L 314 569 L 314 571 L 318 573 L 322 577 L 324 577 L 326 580 L 328 580 L 328 578 L 324 576 L 322 571 L 322 479 L 315 472 Z" fill="#b5a6a5" fill-rule="evenodd"/>
<path d="M 429 462 L 425 465 L 425 466 L 424 467 L 424 470 L 427 470 L 431 466 L 432 466 L 433 465 L 439 465 L 440 466 L 441 466 L 444 469 L 444 470 L 446 473 L 446 475 L 445 476 L 444 479 L 441 482 L 440 482 L 439 483 L 433 483 L 432 482 L 431 482 L 428 479 L 428 478 L 427 477 L 424 477 L 424 480 L 425 481 L 425 482 L 428 485 L 429 485 L 432 487 L 440 487 L 441 486 L 444 485 L 447 482 L 447 481 L 448 480 L 448 478 L 449 477 L 449 472 L 448 471 L 448 469 L 447 468 L 447 467 L 443 463 L 442 463 L 441 462 L 439 462 L 438 461 L 432 461 L 431 462 Z" fill="#b5a6a5" fill-rule="evenodd"/>
<path d="M 283 461 L 282 462 L 279 463 L 275 467 L 275 468 L 274 469 L 274 471 L 273 472 L 273 475 L 274 476 L 274 478 L 275 479 L 276 482 L 278 484 L 279 484 L 282 486 L 291 486 L 292 485 L 293 485 L 298 480 L 298 477 L 295 477 L 294 478 L 294 479 L 291 482 L 290 482 L 289 483 L 283 483 L 282 482 L 281 482 L 278 479 L 278 478 L 277 477 L 277 471 L 278 470 L 278 469 L 281 466 L 282 466 L 283 465 L 289 465 L 290 466 L 291 466 L 295 470 L 298 470 L 298 467 L 294 463 L 293 463 L 290 461 Z" fill="#b5a6a5" fill-rule="evenodd"/>
<path d="M 445 422 L 434 422 L 433 421 L 425 421 L 424 422 L 421 423 L 404 440 L 404 441 L 401 444 L 401 446 L 400 447 L 398 447 L 396 449 L 396 451 L 399 451 L 400 450 L 400 447 L 401 446 L 404 446 L 424 426 L 425 426 L 426 425 L 444 425 L 445 424 Z" fill="#b5a6a5" fill-rule="evenodd"/>
<path d="M 363 401 L 356 401 L 355 402 L 352 402 L 350 400 L 350 399 L 348 399 L 347 401 L 347 404 L 345 407 L 345 410 L 344 411 L 344 418 L 346 422 L 348 422 L 348 421 L 350 419 L 352 419 L 354 421 L 354 423 L 356 424 L 354 426 L 348 425 L 348 428 L 349 429 L 349 434 L 350 435 L 350 443 L 344 450 L 342 454 L 342 456 L 345 456 L 346 453 L 348 451 L 349 451 L 350 449 L 355 446 L 357 446 L 357 444 L 359 443 L 359 438 L 357 438 L 355 436 L 357 435 L 357 433 L 358 432 L 360 432 L 362 430 L 362 428 L 364 426 L 364 424 L 365 423 L 365 420 L 367 418 L 367 416 L 369 415 L 369 410 L 368 409 L 368 406 L 366 404 L 366 403 Z" fill="#b5a6a5" fill-rule="evenodd"/>
<path d="M 961 302 L 921 302 L 919 304 L 919 380 L 921 380 L 921 306 L 923 304 L 961 304 Z" fill="#b5a6a5" fill-rule="evenodd"/>
<path d="M 438 331 L 433 325 L 416 324 L 410 328 L 408 335 L 396 336 L 384 332 L 377 323 L 352 323 L 361 317 L 366 299 L 362 271 L 358 269 L 325 289 L 263 312 L 259 317 L 253 317 L 250 320 L 251 329 L 248 341 L 257 349 L 254 353 L 257 363 L 263 363 L 264 371 L 271 379 L 272 373 L 282 369 L 289 361 L 292 366 L 299 355 L 316 352 L 369 357 L 385 353 L 437 353 Z" fill="#b5a6a5" fill-rule="evenodd"/>
<path d="M 425 240 L 410 235 L 361 202 L 294 245 L 287 261 L 275 254 L 238 264 L 233 260 L 192 264 L 194 325 L 210 336 L 194 343 L 200 396 L 206 386 L 210 387 L 208 395 L 215 400 L 212 413 L 222 409 L 216 294 L 203 297 L 196 286 L 200 276 L 213 278 L 216 290 L 285 275 L 355 237 L 353 220 L 364 211 L 380 227 L 367 235 L 404 259 L 407 254 L 400 245 L 394 247 L 393 233 Z" fill="#b5a6a5" fill-rule="evenodd"/>
<path d="M 431 467 L 429 469 L 429 470 L 428 471 L 428 477 L 429 478 L 429 479 L 431 481 L 432 481 L 433 482 L 439 482 L 440 481 L 441 481 L 443 479 L 443 478 L 444 477 L 444 471 L 443 470 L 443 469 L 442 468 L 441 468 L 440 467 Z" fill="#c43835" fill-rule="evenodd"/>
<path d="M 442 455 L 439 455 L 436 453 L 426 455 L 415 463 L 406 467 L 399 474 L 397 478 L 397 551 L 399 551 L 399 480 L 406 472 L 420 471 L 427 462 L 432 460 L 441 461 L 448 467 L 450 472 L 449 480 L 451 480 L 453 475 L 453 466 L 449 459 Z" fill="#c43835" fill-rule="evenodd"/>
<path d="M 457 415 L 456 416 L 455 416 L 452 419 L 452 420 L 451 421 L 451 425 L 452 426 L 452 427 L 455 430 L 456 430 L 457 431 L 463 431 L 464 430 L 465 430 L 466 429 L 466 428 L 467 427 L 467 426 L 468 425 L 468 421 L 467 420 L 467 419 L 464 416 L 463 416 L 462 415 Z" fill="#c43835" fill-rule="evenodd"/>
<path d="M 476 411 L 469 404 L 464 402 L 455 402 L 444 407 L 434 414 L 425 415 L 416 419 L 407 428 L 404 429 L 395 440 L 392 449 L 392 457 L 396 458 L 399 455 L 399 453 L 395 451 L 396 447 L 421 422 L 425 420 L 442 421 L 446 418 L 447 415 L 451 411 L 456 409 L 463 409 L 471 415 L 473 419 L 473 427 L 470 434 L 472 434 L 476 427 L 476 420 L 477 419 Z" fill="#c43835" fill-rule="evenodd"/>
<path d="M 901 315 L 899 314 L 896 314 L 895 313 L 891 313 L 886 316 L 885 318 L 885 322 L 883 326 L 883 329 L 881 331 L 881 335 L 878 341 L 878 343 L 879 344 L 876 349 L 876 356 L 878 356 L 879 354 L 879 350 L 881 347 L 883 339 L 885 338 L 886 336 L 887 336 L 889 338 L 889 339 L 891 340 L 893 344 L 893 350 L 894 351 L 895 356 L 896 357 L 898 357 L 898 355 L 899 354 L 899 352 L 898 351 L 899 350 L 899 348 L 901 346 L 901 336 L 902 335 L 902 332 L 903 331 L 903 322 L 902 321 L 902 318 L 901 317 Z" fill="#c43835" fill-rule="evenodd"/>
<path d="M 843 312 L 832 312 L 830 313 L 828 317 L 829 367 L 830 368 L 830 376 L 832 381 L 833 390 L 836 389 L 835 383 L 837 381 L 837 378 L 839 373 L 840 345 L 842 340 L 844 338 L 847 340 L 851 345 L 856 355 L 857 360 L 859 360 L 858 350 L 856 348 L 853 334 L 850 329 L 850 325 L 847 316 Z" fill="#c43835" fill-rule="evenodd"/>
<path d="M 673 312 L 669 317 L 664 345 L 662 349 L 660 369 L 663 373 L 661 374 L 661 376 L 663 376 L 664 379 L 669 378 L 666 373 L 667 365 L 671 355 L 676 332 L 678 328 L 682 326 L 687 335 L 694 366 L 694 370 L 688 376 L 683 376 L 683 379 L 688 379 L 696 383 L 700 390 L 701 396 L 708 397 L 710 396 L 709 383 L 693 316 L 689 312 Z" fill="#c43835" fill-rule="evenodd"/>
<path d="M 622 312 L 619 316 L 619 339 L 620 340 L 620 349 L 619 350 L 618 353 L 613 356 L 613 358 L 616 359 L 620 363 L 620 364 L 621 365 L 621 368 L 622 369 L 626 369 L 627 368 L 628 368 L 628 365 L 629 364 L 629 356 L 630 355 L 630 352 L 629 351 L 629 350 L 630 349 L 630 342 L 631 341 L 631 315 L 629 313 L 626 313 L 625 312 Z" fill="#c43835" fill-rule="evenodd"/>
<path d="M 733 312 L 730 316 L 733 397 L 737 397 L 741 393 L 744 339 L 747 337 L 751 343 L 763 375 L 769 377 L 775 373 L 786 338 L 789 336 L 793 343 L 795 391 L 798 396 L 802 396 L 806 361 L 805 314 L 795 311 L 787 315 L 776 355 L 768 364 L 763 358 L 749 314 L 746 311 Z" fill="#c43835" fill-rule="evenodd"/>
<path d="M 359 262 L 243 311 L 246 425 L 260 430 L 287 413 L 316 462 L 284 452 L 265 467 L 281 489 L 315 484 L 312 559 L 244 502 L 243 511 L 306 574 L 364 608 L 488 508 L 505 316 L 496 312 L 486 495 L 409 562 L 406 486 L 431 487 L 407 478 L 404 565 L 417 565 L 395 581 L 397 557 L 391 578 L 355 594 L 344 585 L 343 523 L 341 579 L 325 561 L 331 448 L 305 406 L 251 380 L 245 340 L 253 316 L 358 268 L 391 282 Z" fill="#c43835" fill-rule="evenodd"/>
<path d="M 347 254 L 343 254 L 338 257 L 334 261 L 328 264 L 326 264 L 323 266 L 320 266 L 316 268 L 314 270 L 310 271 L 307 274 L 306 274 L 305 276 L 303 276 L 296 280 L 294 280 L 290 282 L 287 282 L 284 284 L 279 285 L 276 287 L 276 289 L 281 289 L 282 288 L 284 288 L 288 286 L 291 286 L 301 281 L 303 281 L 313 276 L 320 270 L 324 269 L 331 265 L 334 265 L 336 264 L 342 259 L 344 259 L 346 257 L 347 257 Z" fill="#c43835" fill-rule="evenodd"/>
<path d="M 367 248 L 367 250 L 371 254 L 372 254 L 373 255 L 375 255 L 380 260 L 381 260 L 386 263 L 389 263 L 390 264 L 392 264 L 394 266 L 395 266 L 404 271 L 407 271 L 408 272 L 409 272 L 412 276 L 413 276 L 414 277 L 416 277 L 418 279 L 423 280 L 423 277 L 418 275 L 417 274 L 417 272 L 416 272 L 413 270 L 408 269 L 406 267 L 404 267 L 401 265 L 399 265 L 398 264 L 393 263 L 391 261 L 390 261 L 386 257 L 379 254 L 376 250 L 373 250 L 370 248 Z" fill="#c43835" fill-rule="evenodd"/>
</svg>